<svg width="78" height="39" viewBox="0 0 78 39" fill="none" xmlns="http://www.w3.org/2000/svg">
<path d="M37.584 4.788H47.592C47.976 4.788 48.258 4.836 48.438 4.932C48.618 5.016 48.738 5.154 48.798 5.346C48.858 5.538 48.888 5.79 48.888 6.102C48.888 6.414 48.858 6.666 48.798 6.858C48.738 7.038 48.636 7.164 48.492 7.236C48.276 7.344 47.97 7.398 47.574 7.398H44.136V16.452C44.136 16.728 44.124 16.932 44.1 17.064C44.088 17.196 44.034 17.352 43.938 17.532C43.854 17.7 43.698 17.82 43.47 17.892C43.242 17.964 42.942 18 42.57 18C42.198 18 41.898 17.964 41.67 17.892C41.454 17.82 41.298 17.7 41.202 17.532C41.118 17.352 41.064 17.196 41.04 17.064C41.028 16.92 41.022 16.71 41.022 16.434V7.398H37.566C37.182 7.398 36.9 7.356 36.72 7.272C36.54 7.176 36.42 7.032 36.36 6.84C36.3 6.648 36.27 6.396 36.27 6.084C36.27 5.772 36.3 5.526 36.36 5.346C36.42 5.154 36.522 5.022 36.666 4.95C36.882 4.842 37.188 4.788 37.584 4.788ZM53.8799 9.522C53.9519 8.85 54.4259 8.514 55.3019 8.514C55.7699 8.514 56.1179 8.55 56.3459 8.622C56.5739 8.694 56.7299 8.82 56.8139 9C56.9099 9.18 56.9639 9.342 56.9759 9.486C56.9999 9.618 57.0119 9.822 57.0119 10.098V16.398C57.0119 16.674 56.9999 16.884 56.9759 17.028C56.9639 17.16 56.9159 17.316 56.8319 17.496C56.6639 17.808 56.2499 17.964 55.5899 17.964C54.9419 17.964 54.5039 17.886 54.2759 17.73C54.0599 17.562 53.9339 17.322 53.8979 17.01C53.4539 17.646 52.7099 17.964 51.6659 17.964C50.6339 17.964 49.6739 17.49 48.7859 16.542C47.8979 15.594 47.4539 14.496 47.4539 13.248C47.4539 11.988 47.8979 10.89 48.7859 9.954C49.6859 9.006 50.6699 8.532 51.7379 8.532C52.1459 8.532 52.5179 8.604 52.8539 8.748C53.1899 8.892 53.4239 9.03 53.5559 9.162C53.6879 9.282 53.7959 9.402 53.8799 9.522ZM50.6039 13.266C50.6039 13.662 50.7599 14.022 51.0719 14.346C51.3839 14.658 51.7619 14.814 52.2059 14.814C52.6499 14.814 53.0159 14.652 53.3039 14.328C53.6039 14.004 53.7539 13.65 53.7539 13.266C53.7539 12.87 53.6099 12.504 53.3219 12.168C53.0459 11.832 52.6679 11.664 52.1879 11.664C51.7199 11.664 51.3359 11.832 51.0359 12.168C50.7479 12.504 50.6039 12.87 50.6039 13.266ZM58.5186 17.154C58.2906 17.01 58.1766 16.782 58.1766 16.47C58.1766 16.158 58.4046 15.684 58.8606 15.048C58.9926 14.844 59.2026 14.742 59.4906 14.742C59.7906 14.742 60.1926 14.892 60.6966 15.192C61.2006 15.48 61.6566 15.624 62.0646 15.624C62.7966 15.624 63.1626 15.48 63.1626 15.192C63.1626 14.964 62.7606 14.796 61.9566 14.688C61.2006 14.58 60.4506 14.298 59.7066 13.842C59.3586 13.626 59.0706 13.29 58.8426 12.834C58.6146 12.366 58.5006 11.814 58.5006 11.178C58.5006 9.282 59.8026 8.334 62.4066 8.334C63.2586 8.334 64.1346 8.538 65.0346 8.946C65.4546 9.138 65.6646 9.378 65.6646 9.666C65.6646 9.954 65.5326 10.308 65.2686 10.728C65.0046 11.148 64.7346 11.358 64.4586 11.358C64.3146 11.358 64.0446 11.268 63.6486 11.088C63.2646 10.908 62.8446 10.818 62.3886 10.818C61.6806 10.818 61.3266 10.95 61.3266 11.214C61.3266 11.574 61.7346 11.808 62.5506 11.916C63.3426 12 64.1106 12.228 64.8546 12.6C65.2026 12.768 65.4906 13.062 65.7186 13.482C65.9586 13.89 66.0786 14.406 66.0786 15.03C66.0786 15.654 65.9586 16.188 65.7186 16.632C65.4906 17.064 65.1666 17.388 64.7466 17.604C63.9786 17.976 63.0126 18.162 61.8486 18.162C60.6966 18.162 59.5866 17.826 58.5186 17.154ZM72.8332 13.248L75.2272 15.228C75.5272 15.48 75.7132 15.672 75.7852 15.804C75.8692 15.936 75.9112 16.062 75.9112 16.182C75.9112 16.47 75.7252 16.86 75.3532 17.352C74.9452 17.856 74.5852 18.108 74.2732 18.108C74.0092 18.108 73.6432 17.934 73.1752 17.586L72.9952 17.46C72.7192 17.232 72.2932 16.836 71.7172 16.272C71.1412 15.696 70.7032 15.288 70.4032 15.048V16.434C70.4032 16.71 70.3912 16.92 70.3672 17.064C70.3552 17.196 70.3012 17.352 70.2052 17.532C70.0492 17.844 69.5872 18 68.8192 18C68.0632 18 67.6012 17.838 67.4332 17.514C67.3492 17.334 67.2952 17.178 67.2712 17.046C67.2592 16.902 67.2532 16.692 67.2532 16.416V5.634C67.2532 5.358 67.2592 5.154 67.2712 5.022C67.2952 4.878 67.3492 4.716 67.4332 4.536C67.6012 4.212 68.0692 4.05 68.8372 4.05C69.4132 4.05 69.8212 4.152 70.0612 4.356C70.2652 4.524 70.3732 4.788 70.3852 5.148C70.3972 5.256 70.4032 5.424 70.4032 5.652V11.358C70.6192 11.178 70.9432 10.872 71.3752 10.44C71.8192 10.008 72.1492 9.702 72.3652 9.522L72.5812 9.378C73.0012 9.054 73.3612 8.892 73.6612 8.892C73.9612 8.892 74.3032 9.138 74.6872 9.63C75.0832 10.11 75.2812 10.488 75.2812 10.764C75.2812 11.04 75.0592 11.364 74.6152 11.736L72.8332 13.248Z" fill="#084D68"/>
<path d="M45.874 24.292C45.97 24.112 46.132 23.986 46.36 23.914C46.588 23.842 46.876 23.806 47.224 23.806C47.572 23.806 47.848 23.836 48.052 23.896C48.256 23.956 48.412 24.028 48.52 24.112C48.628 24.196 48.712 24.316 48.772 24.472C48.832 24.676 48.862 24.988 48.862 25.408V35.398C48.862 35.674 48.85 35.884 48.826 36.028C48.814 36.16 48.76 36.316 48.664 36.496C48.496 36.82 48.028 36.982 47.26 36.982C46.42 36.982 45.928 36.76 45.784 36.316C45.712 36.112 45.676 35.8 45.676 35.38V31.726H40.906V35.398C40.906 35.674 40.894 35.884 40.87 36.028C40.858 36.16 40.804 36.316 40.708 36.496C40.54 36.82 40.072 36.982 39.304 36.982C38.464 36.982 37.972 36.76 37.828 36.316C37.756 36.112 37.72 35.8 37.72 35.38V25.39C37.72 25.114 37.726 24.91 37.738 24.778C37.762 24.634 37.822 24.472 37.918 24.292C38.086 23.968 38.554 23.806 39.322 23.806C40.162 23.806 40.66 24.028 40.816 24.472C40.876 24.676 40.906 24.988 40.906 25.408V29.08H45.676V25.39C45.676 25.114 45.682 24.91 45.694 24.778C45.718 24.634 45.778 24.472 45.874 24.292ZM54.5179 36.964C53.3059 36.964 52.2979 36.508 51.4939 35.596C50.7019 34.672 50.3059 33.55 50.3059 32.23V29.08C50.3059 28.792 50.3119 28.582 50.3239 28.45C50.3479 28.318 50.4019 28.162 50.4859 27.982C50.6539 27.658 51.1219 27.496 51.8899 27.496C52.7299 27.496 53.2219 27.724 53.3659 28.18C53.4379 28.372 53.4739 28.678 53.4739 29.098V32.248C53.4739 32.74 53.6119 33.124 53.8879 33.4C54.1759 33.676 54.5539 33.814 55.0219 33.814C55.5019 33.814 55.8859 33.67 56.1739 33.382C56.4739 33.094 56.6239 32.716 56.6239 32.248V29.062C56.6239 28.786 56.6299 28.582 56.6419 28.45C56.6659 28.306 56.7259 28.144 56.8219 27.964C56.9779 27.652 57.4399 27.496 58.2079 27.496C58.9639 27.496 59.4259 27.658 59.5939 27.982C59.6779 28.162 59.7259 28.324 59.7379 28.468C59.7619 28.6 59.7739 28.804 59.7739 29.08V35.452C59.7739 35.716 59.7619 35.92 59.7379 36.064C59.7259 36.196 59.6719 36.346 59.5759 36.514C59.3959 36.826 58.9339 36.982 58.1899 36.982C57.4579 36.982 57.0079 36.838 56.8399 36.55C56.7199 36.346 56.6599 36.1 56.6599 35.812C56.6119 35.896 56.5039 36.016 56.3359 36.172C56.1679 36.328 56.0059 36.46 55.8499 36.568C55.4419 36.832 54.9979 36.964 54.5179 36.964ZM66.424 27.532C67.492 27.532 68.47 28.006 69.358 28.954C70.258 29.902 70.708 31.006 70.708 32.266C70.708 33.514 70.264 34.612 69.376 35.56C68.488 36.496 67.534 36.964 66.514 36.964C65.494 36.964 64.768 36.676 64.336 36.1C64.24 36.688 63.724 36.982 62.788 36.982C62.032 36.982 61.57 36.82 61.402 36.496C61.318 36.316 61.264 36.16 61.24 36.028C61.228 35.884 61.222 35.674 61.222 35.398V24.652C61.222 24.376 61.228 24.172 61.24 24.04C61.264 23.896 61.318 23.74 61.402 23.572C61.57 23.248 62.038 23.086 62.806 23.086C63.562 23.086 64.018 23.248 64.174 23.572C64.27 23.752 64.324 23.914 64.336 24.058C64.36 24.19 64.372 24.394 64.372 24.67V28.414C64.852 27.826 65.536 27.532 66.424 27.532ZM64.84 33.346C65.14 33.67 65.512 33.832 65.956 33.832C66.4 33.832 66.778 33.67 67.09 33.346C67.402 33.022 67.558 32.662 67.558 32.266C67.558 31.87 67.414 31.51 67.126 31.186C66.838 30.85 66.454 30.682 65.974 30.682C65.494 30.682 65.11 30.85 64.822 31.186C64.546 31.522 64.408 31.888 64.408 32.284C64.408 32.668 64.552 33.022 64.84 33.346Z" fill="#062743"/>
<rect y="7" width="31" height="7" rx="3.5" fill="#17223B"/>
<rect y="17" width="31" height="7" rx="3.5" fill="#0A516D"/>
<rect y="26" width="31" height="7" rx="3.5" fill="#17223B"/>
</svg>
